<?xml version="1.0" encoding="UTF-8"?>
<svg width="12px" height="10px" viewBox="0 0 12 10" version="1.1" xmlns="http://www.w3.org/2000/svg" xmlns:xlink="http://www.w3.org/1999/xlink">
    <!-- Generator: sketchtool 50.2 (55047) - http://www.bohemiancoding.com/sketch -->
    <title>9AD4C7E7-9F35-47D9-9048-51AC717EDB1C</title>
    <desc>Created with sketchtool.</desc>
    <defs></defs>
    <g id="Page-1" stroke="none" stroke-width="1" fill="none" fill-rule="evenodd">
        <g id="Homepage" transform="translate(-1300.000000, -50.000000)" fill="#FFFFFF">
            <g id="Header">
                <g id="Group-4" transform="translate(1163.000000, 39.000000)">
                    <path d="M137.5,17.0006499 L145.484,17.0006499 L143.142,19.420408 C142.953,19.6173883 142.953,19.9383562 143.142,20.1353365 L143.826,20.8522648 C144.014,21.0492451 144.32,21.0492451 144.51,20.8522648 L148.859,16.3467153 C149.047,16.1467353 149.047,15.8267673 148.859,15.629787 L144.537,11.1492351 C144.348,10.950255 144.041,10.950255 143.853,11.1492351 L143.17,11.8661634 C142.98,12.0641436 142.98,12.3851115 143.17,12.5820918 L145.511,15.0008499 L137.5,15.0008499 C137.223,15.0008499 137,15.2238276 137,15.5007999 L137,16.5006999 C137,16.7756724 137.223,17.0006499 137.5,17.0006499" id="Fill-85"></path>
                </g>
            </g>
        </g>
    </g>
</svg>