<?xml version="1.0" encoding="UTF-8"?>
<svg width="35px" height="35px" viewBox="0 0 35 35" version="1.1" xmlns="http://www.w3.org/2000/svg" xmlns:xlink="http://www.w3.org/1999/xlink">
    <!-- Generator: sketchtool 50.2 (55047) - http://www.bohemiancoding.com/sketch -->
    <title>E902C6E9-13CA-4667-86E1-45AC11213A8A</title>
    <desc>Created with sketchtool.</desc>
    <defs></defs>
    <g id="Page-1" stroke="none" stroke-width="1" fill="none" fill-rule="evenodd">
        <g id="Homepage" transform="translate(-128.000000, -35.000000)" fill="#FFFFFF">
            <g id="Header">
                <path d="M157.177795,60 C153.336576,59.5857595 152,57.6474684 152,53 C152,48.3525316 153.336576,46.4142405 157.177795,46 C158.337181,48.064557 159,50.4525316 159,53 C159,55.5474684 158.337181,57.935443 157.177795,60 M146.058509,60 C150.667086,60 152.589157,61.3365625 153,65.1777441 C150.952651,66.3371191 148.584659,67 146.058509,67 C138.293341,67 132,60.7328125 132,53 C132,45.2671875 138.293341,39 146.058509,39 C148.584659,39 150.952651,39.6628125 153,40.8221875 C152.589157,44.6634375 150.667086,45.9999316 146.058509,45.9999316 C142.177092,45.9999316 139.02922,49.1346875 139.02922,53 C139.02922,56.8675 142.177092,60 146.058509,60 M145.5,35 C135.835078,35 128,42.8350098 128,52.5 C128,62.1649902 135.835078,70 145.5,70 C155.16499,70 163,62.1649902 163,52.5 C163,42.8350098 155.16499,35 145.5,35" id="Fill-1"></path>
            </g>
        </g>
    </g>
</svg>