<?xml version="1.0" encoding="UTF-8"?>
<svg width="50px" height="22px" viewBox="0 0 50 22" version="1.1" xmlns="http://www.w3.org/2000/svg" xmlns:xlink="http://www.w3.org/1999/xlink">
    <!-- Generator: sketchtool 50.2 (55047) - http://www.bohemiancoding.com/sketch -->
    <title>A066FC9A-6DE5-4C8C-B73D-3E2B1560E38E</title>
    <desc>Created with sketchtool.</desc>
    <defs></defs>
    <g id="Page-1" stroke="none" stroke-width="1" fill="none" fill-rule="evenodd">
        <g id="Homepage" transform="translate(-132.000000, -282.000000)" fill="#668DFF">
            <g id="Header">
                <path d="M135.571405,296.310527 C137.543823,296.310527 139.142809,297.912199 139.142809,299.888168 C139.142809,301.864041 137.543823,303.465713 135.571405,303.465713 C133.59889,303.465713 132,301.864041 132,299.888168 C132,297.912199 133.59889,296.310527 135.571405,296.310527 Z M178.428595,282.000019 C180.401014,282.000019 182,283.601692 182,285.57766 C182,287.553533 180.401014,289.155206 178.428595,289.155206 C175.680047,289.155206 174.857191,290.127646 174.857191,292.732847 C174.857191,292.82064 174.848364,292.896632 174.833779,292.965043 C174.712212,294.830575 173.178759,296.310488 171.285786,296.310488 C171.260648,296.310488 171.237428,296.30358 171.212385,296.3031 C168.532345,296.323249 167.723593,297.300871 167.723593,299.878822 C167.723593,299.984366 167.708913,300.07072 167.688092,300.148343 C167.552708,302.000537 166.026355,303.465771 164.142881,303.465771 C162.170367,303.465771 160.571477,301.864002 160.571477,299.888225 C160.571477,298.041404 161.97348,296.539326 163.766666,296.34858 C163.874704,296.320179 163.998286,296.301181 164.152188,296.301181 C167.233678,296.301181 167.712271,295.590489 167.722537,292.815171 C167.721962,292.787154 167.714286,292.761056 167.714286,292.732847 C167.714286,290.869234 169.142099,289.356122 170.958793,289.188308 C171.054262,289.168926 171.159038,289.155206 171.285786,289.155206 C174.402202,289.155206 174.857191,288.432136 174.857191,285.57766 C174.857191,283.601692 176.456081,282.000019 178.428595,282.000019 Z M157.333782,289.188961 C159.147117,289.360037 160.571477,290.871518 160.571477,292.732924 C160.571477,294.708701 158.972491,296.310565 156.999976,296.310565 C155.027557,296.310565 153.428571,294.708701 153.428571,292.732924 C153.428571,292.721506 153.431834,292.711143 153.43193,292.699917 C153.424733,290.120335 152.597655,289.155187 149.861197,289.155187 L149.861676,289.154899 L149.860813,289.154995 L149.861197,289.155187 C147.112649,289.155187 146.289792,290.127627 146.289792,292.732924 C146.289792,292.82916 146.27799,292.909949 146.260528,292.983062 C146.130037,294.839958 144.60119,296.310565 142.714262,296.310565 C140.741843,296.310565 139.142857,294.708701 139.142857,292.732924 C139.142857,290.866816 140.574221,289.352169 142.394177,289.187617 C142.485616,289.169291 142.586458,289.156722 142.706394,289.15605 C142.709176,289.15605 142.711575,289.155187 142.714262,289.155187 C142.714837,289.155187 142.715893,289.155378 142.715893,289.155378 C142.716852,289.155378 142.717428,289.155187 142.718292,289.155187 C145.821082,289.155187 146.285187,288.436722 146.289312,285.613526 C146.289216,285.601245 146.285762,285.589923 146.285762,285.577641 C146.285762,283.601769 147.884652,282 149.857167,282 C151.829585,282 153.428571,283.601769 153.428571,285.577641 C153.428571,285.579176 153.428188,285.580616 153.428188,285.582151 L153.432505,285.577641 C153.432505,288.432117 153.88759,289.155187 157.004006,289.155187 C157.132002,289.155187 157.237737,289.169195 157.333782,289.188961 Z" id="Combined-Shape"></path>
            </g>
        </g>
    </g>
</svg>