<svg xmlns="http://www.w3.org/2000/svg" viewBox="0 0 578.6856 96">
	<g>
		<circle style="fill: #4a90e2" cx="48" cy="48" r="48"/>
		<path style="fill: #ffffff" d="M80,41.6a38.2276,38.2276,0,0,1,18.96,4.998C97.838,57.134,92.588,60.8,80,60.8a19.2,19.2,0,1,0,0,38.4c12.588,0,17.838,3.666,18.96,14.202A38.4034,38.4034,0,1,1,80,41.6Z" transform="translate(-32 -32)"/>
		<path style="fill: #ffffff" d="M113.402,61.04a38.4614,38.4614,0,0,1,0,37.92C102.866,97.838,99.2,92.588,99.2,80S102.866,62.162,113.402,61.04Z" transform="translate(-32 -32)"/>
	</g>
	<g>
		<path style="fill: #4a90e2" d="M177.0283,70.3623V96H169.419V70.3623H160.124V64h25.7627l.9355,6.3623Z" transform="translate(-32 -32)"/>
		<path style="fill: #4a90e2" d="M212.6465,96V82.6514H200.4824V96h-7.36V64h7.36V76.2266h12.1641V64h7.4229V96Z" transform="translate(-32 -32)"/>
		<path style="fill: #4a90e2" d="M229.0528,96V64h20.834v5.9258H236.3516v6.6748h10.541l.874,5.8633h-11.415v7.61h13.91V96Z" transform="translate(-32 -32)"/>
		<path style="fill: #4a90e2" d="M292.9287,96,278.9561,74.916V96h-6.6748V64h7.1113l13.2236,19.9609V64h6.6748V96Z" transform="translate(-32 -32)"/>
		<path style="fill: #4a90e2" d="M312.3906,96h-7.1113l11.7891-32.3115h8.9209l11.4775,31.376L330.23,96.499l-2.5576-7.6729h-12.85Zm8.92-26.1367h-.1875l-4.3662,13.1h8.92Z" transform="translate(-32 -32)"/>
		<path style="fill: #4a90e2" d="M364.1035,96,350.1309,74.916V96h-6.6748V64h7.1113L363.791,83.9609V64h6.6748V96Z" transform="translate(-32 -32)"/>
		<path style="fill: #4a90e2" d="M393.1719,96.624c-8.4834,0-15.3457-6.4248-15.3457-16.5928,0-10.23,6.9238-16.6548,15.3457-16.6548,8.5449,0,15.3447,6.3628,15.3447,16.5923C408.5166,90.1367,401.6553,96.624,393.1719,96.624Zm0-27.1973c-5.0527,0-7.9219,4.5537-7.9219,10.542,0,5.9258,2.9941,10.667,7.9219,10.667,5.0527,0,7.9219-4.6162,7.9219-10.6045C401.0938,74.1055,398.1,69.4268,393.1719,69.4268Z" transform="translate(-32 -32)"/>
		<path style="fill: #4a90e2" d="M444.4473,96.624c-9.5439,0-15.72-6.4248-15.72-16.53,0-10.168,6.4873-16.7173,15.5322-16.7173a16.7176,16.7176,0,0,1,9.0449,2.2456l-.998,6.55a12.2076,12.2076,0,0,0-7.36-2.5576c-5.24,0-8.6084,3.7422-8.6084,10.417,0,6.6123,3.5557,10.417,8.7334,10.417a14.4529,14.4529,0,0,0,7.7969-2.4951l.9355,6.1133A18.2134,18.2134,0,0,1,444.4473,96.624Z" transform="translate(-32 -32)"/>
		<path style="fill: #4a90e2" d="M460.9776,96V64h20.834v5.9258H468.2754v6.6748h10.542l.874,5.8633h-11.416v7.61h13.9111V96Z" transform="translate(-32 -32)"/>
		<path style="fill: #4a90e2" d="M510.3819,96,496.4092,74.916V96h-6.6748V64h7.1113l13.2236,19.9609V64h6.6748V96Z" transform="translate(-32 -32)"/>
		<path style="fill: #4a90e2" d="M540.0733,70.3623V96h-7.6094V70.3623H523.169V64h25.7627l.9355,6.3623Z" transform="translate(-32 -32)"/>
		<path style="fill: #4a90e2" d="M556.167,96V64h20.834v5.9258H563.4649v6.6748h10.542l.874,5.8633h-11.416v7.61H577.376V96Z" transform="translate(-32 -32)"/>
		<path style="fill: #4a90e2" d="M603.0762,96.4365l-7.8594-11.54h-2.9941V96h-7.2988V64H596.09c8.0469,0,12.6,3.8047,12.6,10.23a9.4042,9.4042,0,0,1-6.1748,9.0449l8.1709,11.7266Zm-7.4229-26.6357H592.16v9.5439h3.4307c3.8047,0,5.8633-1.6836,5.8633-4.9277C601.4541,71.4229,599.333,69.8008,595.6533,69.8008Z" transform="translate(-32 -32)"/>
	</g>
</svg>
